<?xml version="1.0" standalone="no"?>
<!DOCTYPE svg PUBLIC "-//W3C//DTD SVG 20010904//EN"
 "http://www.w3.org/TR/2001/REC-SVG-20010904/DTD/svg10.dtd">
<svg version="1.0" xmlns="http://www.w3.org/2000/svg"
 width="1280.000000pt" height="1226.000000pt" viewBox="0 0 1280.000000 1226.000000"
 preserveAspectRatio="xMidYMid meet">

<g transform="translate(0.000000,1226.000000) scale(0.100000,-0.100000)"
fill="#000000" stroke="none">
<path d="M5695 11159 c-16 -5 -48 -12 -70 -15 -40 -5 -127 -27 -285 -71 -47
-13 -119 -33 -160 -44 -41 -11 -84 -26 -95 -33 -11 -7 -42 -20 -69 -30 -27
-10 -77 -38 -112 -62 -37 -25 -81 -46 -105 -50 -22 -4 -46 -12 -53 -19 -7 -7
-23 -13 -37 -13 -39 0 -139 -23 -211 -48 -37 -14 -93 -29 -125 -35 -122 -22
-302 -102 -333 -148 -3 -4 -15 -14 -28 -20 -13 -7 -31 -19 -40 -27 -35 -32
-93 -64 -134 -74 -24 -7 -52 -20 -63 -30 -18 -17 -225 -110 -244 -110 -4 0
-16 -9 -26 -20 -10 -11 -32 -25 -50 -31 -19 -7 -39 -25 -49 -44 -22 -40 -113
-120 -193 -170 -35 -21 -63 -41 -63 -45 0 -3 -17 -16 -38 -28 -49 -27 -187
-176 -219 -237 -7 -13 -41 -43 -75 -68 -35 -25 -90 -73 -123 -106 -33 -34 -64
-61 -70 -61 -7 0 -22 -11 -35 -25 -13 -14 -29 -25 -37 -25 -7 0 -25 -19 -39
-42 -15 -24 -42 -59 -60 -80 -17 -20 -57 -71 -87 -115 -31 -43 -70 -93 -86
-111 -17 -18 -31 -39 -31 -45 0 -7 -21 -33 -47 -58 -104 -101 -249 -293 -309
-410 -13 -26 -30 -54 -39 -63 -9 -8 -40 -62 -69 -118 -29 -57 -73 -133 -98
-170 -26 -37 -49 -77 -53 -90 -4 -13 -13 -33 -21 -45 -8 -12 -23 -44 -33 -71
-30 -74 -82 -185 -97 -202 -32 -38 -143 -283 -163 -358 -11 -46 -44 -130 -71
-188 -28 -58 -50 -112 -50 -120 0 -8 13 -27 29 -42 16 -15 46 -47 66 -72 23
-27 46 -45 59 -45 14 0 22 -8 24 -23 2 -12 7 -20 12 -17 4 3 6 -23 3 -56 -9
-98 22 -71 70 61 93 257 91 247 92 375 1 115 26 255 45 255 13 0 21 42 23 116
l2 72 52 51 c29 28 54 51 57 51 3 0 6 -20 6 -44 0 -25 4 -47 9 -50 11 -7 41
55 41 86 0 61 41 169 132 345 37 72 68 136 68 141 0 5 16 27 36 48 20 22 46
60 60 86 13 25 40 66 61 91 42 51 66 84 122 172 63 100 108 166 171 250 33 44
69 93 79 108 10 16 36 37 58 48 48 24 213 175 213 196 0 13 -3 13 -16 2 -13
-11 -13 -7 2 27 38 87 37 86 66 82 21 -4 32 1 43 19 9 13 22 23 30 23 9 0 38
24 65 53 27 28 60 63 74 77 13 14 27 35 30 47 4 13 13 20 21 17 7 -3 26 8 42
24 15 16 41 37 56 47 28 18 28 18 34 -3 8 -34 29 -26 80 29 59 63 60 64 102
92 35 23 39 27 65 89 9 20 31 50 50 65 18 15 44 47 57 70 14 24 38 49 56 58
41 20 99 20 107 0 12 -32 53 -17 89 33 20 26 45 56 57 67 12 11 33 43 47 70
14 28 36 59 50 70 13 11 36 43 51 70 22 42 32 51 58 53 20 2 35 11 43 26 7 12
26 30 41 40 28 16 30 16 61 -12 30 -27 31 -31 20 -62 -13 -38 -137 -160 -162
-160 -22 0 -42 -24 -79 -94 -25 -46 -29 -61 -18 -67 8 -5 20 -1 33 10 11 10
31 22 44 26 60 18 106 65 127 128 4 11 17 17 34 17 21 0 30 6 35 23 20 66 37
85 90 107 80 32 122 40 135 25 6 -7 20 -11 31 -8 13 4 19 1 17 -8 -4 -17 6
-16 112 11 47 12 122 40 167 61 86 41 112 46 131 27 9 -9 21 -9 50 0 22 7 49
12 60 12 36 0 35 20 -2 56 -47 46 -49 92 -6 151 27 37 69 60 88 50 4 -3 31 -1
60 3 46 6 61 3 112 -21 32 -16 61 -36 63 -46 3 -10 8 -30 11 -45 6 -26 8 -27
65 -22 32 2 78 11 102 20 24 9 61 18 82 20 21 1 52 8 70 14 18 5 57 17 87 25
30 8 78 30 105 48 41 27 50 38 48 60 -2 28 0 28 80 12 9 -2 17 1 17 6 0 19 27
8 37 -14 6 -13 17 -24 25 -25 7 0 33 -3 58 -6 86 -11 206 -19 336 -21 72 -1
136 -5 142 -9 17 -11 104 -20 170 -18 38 1 62 -2 62 -9 0 -6 10 -9 23 -7 23 4
24 6 13 51 -9 38 27 55 81 39 21 -6 92 -14 158 -17 84 -4 137 -12 177 -27 39
-14 68 -18 90 -14 61 12 73 11 73 -4 0 -9 -7 -14 -17 -12 -10 2 -18 -2 -18 -8
0 -9 37 -16 70 -11 8 1 21 3 28 3 20 2 14 18 -7 18 -11 0 -23 5 -27 12 -5 8
-2 9 9 5 10 -3 17 -2 17 3 0 6 -7 10 -16 10 -8 0 -13 4 -10 9 3 4 17 6 31 3
18 -3 25 -11 25 -28 0 -20 7 -24 47 -30 29 -4 53 -3 64 4 22 14 77 5 101 -16
9 -8 38 -17 62 -19 39 -5 51 -12 81 -49 20 -24 43 -66 51 -93 17 -58 34 -79
72 -87 15 -3 50 -16 78 -30 28 -13 54 -24 59 -24 4 0 59 -25 122 -56 64 -30
123 -54 132 -52 9 2 17 15 19 30 3 21 -8 38 -52 81 -31 30 -56 59 -56 64 0 11
-150 89 -162 85 -5 -1 -8 4 -8 10 -1 14 -83 78 -99 78 -6 0 -39 16 -75 36 -58
32 -169 67 -251 80 -48 8 -206 44 -255 59 -96 29 -276 59 -450 75 -169 15
-192 18 -250 35 -32 10 -125 20 -220 26 -91 5 -185 14 -210 20 -60 15 -655 22
-695 8z m-118 -75 c-11 -11 -87 -14 -87 -4 0 6 21 10 47 10 25 0 44 -3 40 -6z
m628 -84 c3 -5 2 -10 -4 -10 -5 0 -13 5 -16 10 -3 6 -2 10 4 10 5 0 13 -4 16
-10z m-1365 -200 c11 -7 4 -10 -27 -10 -23 0 -45 5 -48 10 -8 13 55 13 75 0z
m-830 -274 c0 -3 -4 -8 -10 -11 -5 -3 -10 -1 -10 4 0 6 5 11 10 11 6 0 10 -2
10 -4z m-1336 -1086 c25 -63 21 -132 -9 -169 -48 -57 -128 -90 -111 -46 3 8
10 51 16 96 12 88 44 159 71 159 10 0 23 -16 33 -40z m-108 -28 c-14 -14 -16
-14 -16 -1 0 20 23 44 29 28 2 -6 -4 -18 -13 -27z m-1130 -2379 c-18 -34 -22
-8 -4 34 8 21 12 24 15 11 2 -9 -3 -29 -11 -45z"/>
<path d="M8630 10578 c0 -8 5 -19 11 -25 9 -9 6 -10 -11 -6 -20 5 -21 4 -11
-16 13 -24 44 -46 81 -56 14 -4 36 -17 50 -30 14 -12 40 -30 58 -39 18 -9 49
-35 70 -57 57 -62 70 -66 98 -34 20 23 26 26 39 15 8 -7 15 -21 15 -31 0 -21
16 -26 23 -6 5 15 -41 77 -58 77 -8 0 -15 -8 -17 -17 -3 -13 -9 -8 -20 17 -13
32 -60 76 -128 123 -14 9 -47 33 -73 52 -27 19 -58 34 -70 33 -12 0 -30 3 -39
7 -12 5 -18 3 -18 -7z"/>
<path d="M9129 10243 c9 -32 31 -43 31 -14 0 11 -9 25 -19 31 -17 9 -18 7 -12
-17z"/>
<path d="M9220 10200 c20 -13 33 -13 25 0 -3 6 -14 10 -23 10 -15 0 -15 -2 -2
-10z"/>
<path d="M3610 10020 c0 -5 7 -10 15 -10 8 0 15 5 15 10 0 6 -7 10 -15 10 -8
0 -15 -4 -15 -10z"/>
<path d="M5523 8099 c-76 -40 -231 -121 -346 -180 -114 -60 -210 -109 -213
-109 -5 0 -153 -73 -202 -100 -9 -5 -278 -137 -597 -294 -773 -381 -709 -346
-717 -392 -3 -22 -6 -329 -7 -684 -1 -355 -4 -728 -7 -830 -6 -172 -5 -187 12
-207 11 -12 683 -355 1494 -761 811 -407 1507 -757 1546 -778 67 -36 73 -37
110 -26 21 6 75 32 119 58 79 45 1508 764 1520 764 6 0 174 80 365 173 180 89
214 125 328 354 49 98 134 266 188 373 138 271 166 368 129 440 -8 16 -33 50
-56 77 -22 26 -489 498 -1038 1048 -548 550 -1027 1033 -1063 1073 l-67 72
-680 0 -680 0 -138 -71z m1478 -365 c27 -5 76 -48 246 -218 126 -127 214 -223
218 -238 6 -22 -5 -44 -60 -124 -102 -150 -168 -295 -145 -318 6 -6 58 -5 142
2 73 7 212 15 309 18 l177 7 120 -115 c66 -63 222 -219 347 -346 124 -127 270
-270 325 -317 54 -48 104 -100 111 -116 11 -28 2 -50 -191 -442 -112 -227
-215 -430 -229 -452 -22 -33 -46 -50 -136 -94 -362 -177 -1571 -785 -1605
-806 -22 -14 -48 -25 -59 -25 -11 0 -69 51 -143 127 -252 259 -2311 2314
-2412 2407 -58 54 -109 110 -115 126 -9 26 -7 32 17 51 27 21 913 466 1447
727 l280 137 380 5 c619 9 940 10 976 4z"/>
<path d="M5735 7094 c-198 -101 -390 -198 -427 -215 -38 -18 -68 -36 -68 -40
0 -15 421 -424 439 -427 10 -2 188 82 397 187 208 104 400 199 427 210 28 12
47 26 47 36 0 23 -417 435 -438 434 -9 -1 -179 -84 -377 -185z"/>
<path d="M6970 6371 c-19 -10 -205 -104 -413 -209 -208 -105 -385 -196 -393
-203 -8 -6 -14 -18 -14 -25 0 -8 195 -207 432 -444 l433 -430 30 11 c16 7 35
16 41 21 6 4 187 96 402 203 276 138 392 200 392 212 0 13 -782 814 -849 871
-19 16 -20 15 -61 -7z"/>
<path d="M1297 6876 c6 -27 -13 -69 -27 -61 -6 3 -5 16 0 31 10 26 6 44 -10
44 -13 0 -36 -48 -43 -90 -3 -19 -16 -78 -29 -130 -18 -79 -22 -125 -23 -275
-1 -99 -4 -226 -8 -281 -5 -81 -3 -111 10 -149 14 -41 14 -67 5 -194 -13 -189
-1 -322 44 -471 9 -30 20 -111 24 -180 5 -81 17 -159 34 -224 29 -108 28 -116
-20 -220 -21 -45 -21 -51 -8 -95 8 -25 23 -84 34 -131 11 -47 25 -105 31 -130
21 -89 92 -238 213 -445 49 -85 69 -127 106 -225 47 -127 78 -179 261 -437 52
-73 118 -169 147 -215 29 -46 93 -132 142 -193 50 -60 116 -146 147 -190 116
-164 288 -351 433 -470 46 -39 112 -95 145 -126 81 -75 181 -153 295 -230 52
-35 140 -99 195 -142 212 -165 414 -287 790 -477 138 -69 290 -139 339 -154
86 -28 92 -28 172 -16 59 8 92 19 116 37 73 54 101 52 149 -15 43 -61 50 -66
144 -102 251 -98 667 -160 1231 -185 153 -7 401 11 459 32 41 16 120 26 310
42 61 4 153 18 205 29 52 11 150 29 217 40 83 13 138 28 170 45 111 59 197 98
241 108 26 6 70 19 97 29 28 10 93 34 145 53 115 42 390 176 518 251 98 58
227 147 313 217 14 11 58 31 97 44 131 43 382 211 467 312 14 18 73 68 130
110 108 82 298 256 469 431 72 74 122 137 174 220 40 64 86 128 101 142 37 33
101 130 145 219 33 69 74 141 85 151 14 12 51 70 74 115 14 28 46 81 71 120
25 38 46 75 46 81 0 7 21 48 46 91 26 43 55 101 64 128 10 28 32 82 50 120 18
39 40 95 50 125 10 30 28 80 40 110 25 64 56 155 99 295 18 55 36 108 41 117
9 15 100 318 139 460 15 56 15 58 -8 89 -26 35 -27 14 13 234 8 44 17 149 21
233 7 145 6 152 -12 152 -10 0 -46 -28 -80 -62 -61 -63 -62 -64 -88 -173 -15
-60 -40 -150 -57 -200 -21 -64 -31 -112 -32 -165 -1 -41 -5 -80 -9 -87 -4 -6
-14 -50 -22 -98 -9 -48 -19 -95 -24 -104 -5 -9 -21 -66 -36 -126 -15 -61 -40
-150 -57 -200 -30 -88 -141 -344 -178 -408 -10 -18 -25 -66 -35 -107 -14 -61
-99 -266 -136 -330 -5 -8 -19 -33 -30 -55 -29 -54 -116 -180 -134 -195 -8 -7
-26 -35 -40 -63 -49 -100 -78 -138 -139 -189 -68 -57 -96 -91 -131 -159 -13
-25 -38 -64 -57 -87 -18 -23 -51 -65 -73 -93 -63 -82 -225 -262 -373 -415 -76
-77 -173 -179 -217 -225 -73 -77 -108 -106 -247 -202 -25 -17 -81 -59 -123
-92 -105 -83 -121 -92 -195 -116 -87 -29 -122 -51 -205 -130 -94 -89 -183
-152 -248 -174 -52 -17 -55 -17 -112 0 -56 18 -59 18 -89 0 -17 -10 -50 -29
-74 -42 -58 -31 -155 -97 -197 -134 -63 -55 -157 -79 -353 -89 -191 -10 -210
-13 -327 -41 -157 -37 -227 -64 -255 -99 -34 -42 -94 -50 -171 -24 -43 15 -86
19 -204 20 -82 1 -189 5 -236 9 -79 7 -91 5 -150 -18 -109 -43 -127 -44 -216
-4 -65 29 -94 36 -173 40 -60 4 -124 15 -175 31 -94 30 -112 31 -136 10 -11
-10 -45 -17 -91 -21 -64 -5 -81 -2 -138 22 -57 24 -72 26 -135 20 -70 -6 -70
-6 -134 36 -91 59 -258 113 -333 106 -63 -6 -108 12 -163 63 -42 39 -87 60
-151 70 -30 5 -92 20 -138 34 -66 20 -94 36 -139 75 -32 28 -90 71 -130 97
-39 26 -89 62 -110 81 -21 19 -60 43 -85 54 -170 72 -399 208 -509 301 -35 29
-98 82 -140 117 -43 36 -109 93 -148 127 -38 33 -98 75 -132 93 -69 34 -96 59
-124 112 -11 22 -53 64 -104 103 -112 88 -127 117 -84 162 l22 23 -29 39 c-16
21 -116 129 -222 239 -211 220 -246 261 -290 343 -16 30 -53 100 -82 155 -29
55 -72 132 -95 170 -80 134 -97 178 -99 268 -2 45 -11 107 -20 137 -30 95 -31
115 -4 139 23 22 23 23 3 37 -11 8 -29 13 -41 10 -47 -12 -96 91 -118 249 -13
87 -24 131 -41 160 -43 71 -58 109 -57 150 0 22 -13 90 -28 150 -16 61 -31
142 -35 180 -4 39 -16 97 -27 130 -23 72 -48 214 -48 273 0 23 -12 90 -26 147
-26 103 -26 106 -11 187 8 46 13 95 10 109 -2 14 2 75 11 135 12 88 14 158 8
359 l-7 249 -24 12 c-32 16 -42 34 -30 56 6 12 6 25 -1 38 -14 26 -18 25 -13
-4z m-101 -844 c-12 -11 -18 7 -10 30 l8 23 4 -23 c2 -13 1 -26 -2 -30z"/>
</g>
</svg>
